<svg xmlns="http://www.w3.org/2000/svg" width="200" height="200" viewBox="0 0 52.916665 52.916668"><path fill="#0080FF" d="M52.917 26.458a26.458 26.458 0 0 1-26.459 26.459A26.458 26.458 0 0 1 0 26.458 26.458 26.458 0 0 1 26.458 0a26.458 26.458 0 0 1 26.459 26.458Z"/><path fill="#FFF" d="M32.905 15.173s-1.806 7.007-2.139 8.292c-1.177 4.546-3.644 7.087-7.08 7.109-2.287.015-3.155-1.757-2.432-5.058l2.414-10.023a.26.26 0 0 0-.254-.32h-5.439s-1.325 5.469-2.187 8.767c-1.596 6.108.2 10.884 5.528 11.251 2.87.198 5.366-1.207 7.26-3.042l.095.01c-1.094 3.7-2.943 5.754-6.58 6.449-1.39.265-3.38.033-4.825-.721a.221.221 0 0 0-.32.14l-1.316 5.226c1.403.428 3.983.703 6.753.265 4.865-.768 10.718-4.434 12.698-12.914l3.71-15.103a.265.265 0 0 0-.257-.328h-5.63z"/><path fill="#060000" d="M25.282 14.073c1.537 0 2.133-1.17 2.523-3.008.38-1.788.293-3.007-1.244-3.007s-2.143 1.219-2.524 3.007c-.39 1.837-.291 3.008 1.245 3.008m5.885 0c1.537 0 2.133-1.17 2.524-3.008.38-1.788.292-3.007-1.245-3.007-1.537 0-2.143 1.219-2.523 3.007-.39 1.837-.292 3.008 1.244 3.008"/></svg>